<svg width="506" height="438" viewBox="0 0 506 438" fill="none" xmlns="http://www.w3.org/2000/svg">
<rect width="506" height="438" fill="white"/>
<rect width="174" height="179" transform="translate(255 196)" fill="#AB8628" fill-opacity="0.71"/>
<rect x="301" y="244" width="87" height="82" fill="#F9DF9E" fill-opacity="0.71"/>
<rect x="81" y="196" width="174" height="179" fill="#AB8628" fill-opacity="0.71"/>
<rect x="82" y="195.831" width="254.32" height="34.8823" transform="rotate(-45 82 195.831)" fill="#C8A343" fill-opacity="0.71"/>
<rect x="134.469" y="199.572" width="215.881" height="34.8823" transform="rotate(-45 134.469 199.572)" fill="#F1D180" fill-opacity="0.71"/>
<path d="M400.846 219.741L292 103.018L317.756 79L426.602 195.724L400.846 219.741Z" fill="#C8A343" fill-opacity="0.71"/>
<rect x="348.788" y="223.058" width="128.768" height="34.8823" transform="rotate(-133 348.788 223.058)" fill="#F1D180" fill-opacity="0.71"/>
<rect x="122" y="243" width="98" height="83" fill="#F9DF9E" fill-opacity="0.71"/>
<rect x="38" y="182" width="430" height="85" fill="#D9D9D9"/>
<path d="M105.616 245.584C105.264 245.584 105.088 245.504 105.088 245.344C105.088 245.344 105.2 244.832 105.424 243.808C105.68 242.784 105.92 241.264 106.144 239.248C106.4 237.232 106.528 234.768 106.528 231.856C106.528 231.6 106.512 231.344 106.48 231.088C106.48 230.832 106.48 230.576 106.48 230.32C106.096 230.256 105.712 230.192 105.328 230.128C104.976 230.032 104.624 229.936 104.272 229.84C104.048 229.744 103.84 229.408 103.648 228.832C103.456 228.224 103.344 227.792 103.312 227.536C103.312 227.376 103.328 227.296 103.36 227.296C103.424 227.264 103.456 227.248 103.456 227.248C103.968 227.344 104.464 227.424 104.944 227.488C105.424 227.52 105.92 227.552 106.432 227.584C106.304 225.216 106.112 223.056 105.856 221.104C105.6 219.12 105.376 217.52 105.184 216.304C104.832 216.24 104.48 216.16 104.128 216.064C103.808 215.968 103.472 215.872 103.12 215.776C102.8 215.552 102.56 215.216 102.4 214.768C102.24 214.32 102.16 214.016 102.16 213.856C102.16 213.696 102.192 213.616 102.256 213.616C102.704 213.648 103.136 213.68 103.552 213.712C104 213.744 104.448 213.776 104.896 213.808L108.256 211.504L109.504 212.272C109.568 212.56 109.616 212.848 109.648 213.136C109.68 213.392 109.712 213.664 109.744 213.952C111.76 213.888 113.76 213.696 115.744 213.376C117.76 213.024 119.648 212.4 121.408 211.504L122.224 212.752L120.64 216.88C118.4 217.168 116.24 217.312 114.16 217.312C113.456 217.312 112.768 217.296 112.096 217.264C111.424 217.232 110.752 217.184 110.08 217.12C110.176 218.752 110.224 220.384 110.224 222.016C110.224 222.944 110.208 223.872 110.176 224.8C110.144 225.728 110.096 226.656 110.032 227.584C111.824 227.488 113.376 227.28 114.688 226.96C116.032 226.64 117.168 226.304 118.096 225.952L118.528 226.768L117.04 230.08C116.112 230.208 115.152 230.336 114.16 230.464C113.168 230.592 112.192 230.656 111.232 230.656C111.008 230.656 110.768 230.656 110.512 230.656C110.288 230.656 110.048 230.64 109.792 230.608C109.568 233.04 109.28 235.44 108.928 237.808C108.608 240.176 108.272 242.464 107.92 244.672C107.696 244.96 107.312 245.184 106.768 245.344C106.256 245.504 105.872 245.584 105.616 245.584ZM124.99 245.344C124.734 245.344 124.606 245.28 124.606 245.152C125.086 242.24 125.39 239.552 125.518 237.088C125.678 234.592 125.758 232.064 125.758 229.504C125.758 226.656 125.662 223.728 125.47 220.72C125.31 217.712 125.054 214.928 124.702 212.368L125.95 211.504L130.222 213.712C130.126 215.568 129.998 217.712 129.838 220.144C129.71 222.576 129.534 225.088 129.31 227.68C129.086 230.272 128.846 232.8 128.59 235.264C128.334 237.696 128.046 239.856 127.726 241.744C127.982 241.744 128.238 241.76 128.494 241.792C128.782 241.792 129.054 241.792 129.31 241.792C131.294 241.792 133.262 241.632 135.214 241.312C137.166 240.96 139.07 240.288 140.926 239.296L141.742 240.544L140.158 244.672C139.262 244.768 138.398 244.832 137.566 244.864C136.734 244.896 135.902 244.912 135.07 244.912C133.758 244.912 132.462 244.832 131.182 244.672C129.902 244.544 128.622 244.32 127.342 244L127.198 244.576C127.006 244.8 126.654 244.976 126.142 245.104C125.63 245.264 125.246 245.344 124.99 245.344ZM154.168 245.632C152.056 245.632 150.104 245.088 148.312 244C146.552 242.88 145.128 241.264 144.04 239.152C142.984 237.04 142.456 234.448 142.456 231.376C142.456 229.36 142.776 227.28 143.416 225.136C144.088 222.992 145.192 220.976 146.728 219.088C148.264 217.168 150.312 215.536 152.872 214.192C155.464 212.848 158.68 211.968 162.52 211.552L163.336 212.752L161.944 215.536C162.968 216.4 163.896 217.568 164.728 219.04C165.56 220.48 166.216 222.112 166.696 223.936C167.208 225.728 167.464 227.6 167.464 229.552C167.464 231.472 167.224 233.392 166.744 235.312C166.264 237.2 165.496 238.928 164.44 240.496C163.416 242.064 162.056 243.312 160.36 244.24C158.664 245.168 156.6 245.632 154.168 245.632ZM155.368 241.648C157.384 241.584 159.064 241.04 160.408 240.016C161.752 238.992 162.744 237.648 163.384 235.984C164.056 234.32 164.392 232.496 164.392 230.512C164.392 229.04 164.2 227.408 163.816 225.616C163.432 223.824 162.84 222.08 162.04 220.384C161.272 218.656 160.296 217.2 159.112 216.016C154.92 216.624 151.864 218.176 149.944 220.672C148.024 223.168 147.064 226.288 147.064 230.032C147.064 232.464 147.448 234.56 148.216 236.32C149.016 238.048 150.04 239.376 151.288 240.304C152.568 241.2 153.928 241.648 155.368 241.648ZM182.058 245.632C179.946 245.632 177.994 245.088 176.202 244C174.442 242.88 173.018 241.264 171.93 239.152C170.874 237.04 170.346 234.448 170.346 231.376C170.346 229.36 170.666 227.28 171.306 225.136C171.978 222.992 173.082 220.976 174.618 219.088C176.154 217.168 178.202 215.536 180.762 214.192C183.354 212.848 186.57 211.968 190.41 211.552L191.226 212.752L189.834 215.536C190.858 216.4 191.786 217.568 192.618 219.04C193.45 220.48 194.106 222.112 194.586 223.936C195.098 225.728 195.354 227.6 195.354 229.552C195.354 231.472 195.114 233.392 194.634 235.312C194.154 237.2 193.386 238.928 192.33 240.496C191.306 242.064 189.946 243.312 188.25 244.24C186.554 245.168 184.49 245.632 182.058 245.632ZM183.258 241.648C185.274 241.584 186.954 241.04 188.298 240.016C189.642 238.992 190.634 237.648 191.274 235.984C191.946 234.32 192.282 232.496 192.282 230.512C192.282 229.04 192.09 227.408 191.706 225.616C191.322 223.824 190.73 222.08 189.93 220.384C189.162 218.656 188.186 217.2 187.002 216.016C182.81 216.624 179.754 218.176 177.834 220.672C175.914 223.168 174.954 226.288 174.954 230.032C174.954 232.464 175.338 234.56 176.106 236.32C176.906 238.048 177.93 239.376 179.178 240.304C180.458 241.2 181.818 241.648 183.258 241.648ZM203.229 245.632C202.941 245.632 202.797 245.584 202.797 245.488C202.957 244.112 203.101 242.304 203.229 240.064C203.389 237.792 203.469 235.36 203.469 232.768C202.925 232.768 202.365 232.768 201.789 232.768C201.245 232.768 200.733 232.752 200.253 232.72C199.933 232.432 199.709 232.096 199.581 231.712C199.485 231.296 199.437 230.992 199.437 230.8C199.437 230.544 199.485 230.416 199.581 230.416C200.093 230.512 200.637 230.576 201.213 230.608C201.789 230.608 202.525 230.608 203.421 230.608C203.389 228.432 203.245 226.288 202.989 224.176C202.733 222.032 202.333 220.096 201.789 218.368C201.245 216.608 200.525 215.2 199.629 214.144L201.885 210.928C203.645 212.08 205.389 213.056 207.117 213.856C208.877 214.624 210.525 215.328 212.061 215.968C213.629 216.608 215.005 217.28 216.189 217.984C217.405 218.656 218.349 219.44 219.021 220.336C219.725 221.2 220.077 222.288 220.077 223.6C220.077 224.848 219.661 226.16 218.829 227.536C217.997 228.88 216.493 230.016 214.317 230.944C215.053 232.576 215.869 234.272 216.765 236.032C217.693 237.792 218.621 239.456 219.549 241.024C220.509 242.592 221.373 243.888 222.141 244.912C222.141 245.072 221.965 245.2 221.613 245.296C221.293 245.424 220.941 245.488 220.557 245.488C220.461 245.488 220.365 245.488 220.269 245.488C220.173 245.488 220.077 245.472 219.981 245.44C219.117 244.576 218.157 243.44 217.101 242.032C216.077 240.592 215.021 239.008 213.933 237.28C212.845 235.552 211.789 233.808 210.765 232.048C210.125 232.176 209.437 232.304 208.701 232.432C207.997 232.528 207.245 232.608 206.445 232.672C206.317 234.752 206.125 236.832 205.869 238.912C205.613 240.96 205.357 242.96 205.101 244.912C204.877 245.136 204.557 245.312 204.141 245.44C203.757 245.568 203.453 245.632 203.229 245.632ZM206.541 230.368C209.549 229.952 211.741 229.152 213.117 227.968C214.525 226.752 215.229 225.44 215.229 224.032C215.229 222.72 214.813 221.632 213.981 220.768C213.149 219.872 212.029 219.088 210.621 218.416C209.213 217.712 207.629 217.008 205.869 216.304C206.189 218.064 206.397 219.744 206.493 221.344C206.621 222.944 206.685 224.592 206.685 226.288C206.685 227.6 206.637 228.96 206.541 230.368ZM255.529 245.68L250.969 243.712C250.457 239.136 249.689 234.704 248.665 230.416C247.641 226.128 246.537 222.096 245.353 218.32C245.225 220.528 245.049 222.896 244.825 225.424C244.601 227.92 244.329 230.384 244.009 232.816C243.721 235.248 243.417 237.488 243.097 239.536C242.777 241.552 242.457 243.184 242.137 244.432C241.849 244.72 241.449 244.944 240.937 245.104C240.425 245.264 240.041 245.344 239.785 245.344C239.561 245.344 239.417 245.328 239.353 245.296C239.289 245.264 239.257 245.216 239.257 245.152C239.225 245.152 239.321 244.576 239.545 243.424C239.801 242.24 240.057 240.512 240.313 238.24C240.569 235.936 240.697 233.104 240.697 229.744C240.697 227.568 240.633 225.504 240.505 223.552C240.377 221.568 240.217 219.824 240.025 218.32C239.833 216.816 239.673 215.632 239.545 214.768C239.417 213.904 239.353 213.472 239.353 213.472L244.297 211.504L245.545 212.272C247.177 215.952 248.681 219.712 250.057 223.552C251.433 227.392 252.713 231.296 253.897 235.264C255.273 231.584 256.825 227.92 258.553 224.272C260.281 220.592 262.217 216.64 264.361 212.416C264.361 212.384 264.361 212.368 264.361 212.368C264.393 212.336 264.409 212.304 264.409 212.272L265.657 211.504L269.737 213.472C268.873 215.68 268.281 218.272 267.961 221.248C267.673 224.224 267.529 227.44 267.529 230.896C267.529 233.84 267.593 236.624 267.721 239.248C267.881 241.84 268.057 243.92 268.249 245.488C268.249 245.584 268.121 245.632 267.865 245.632C267.641 245.632 267.321 245.568 266.905 245.44C266.489 245.312 266.185 245.136 265.993 244.912C265.257 241.136 264.649 237.456 264.169 233.872C263.721 230.288 263.497 226.752 263.497 223.264C263.497 221.696 263.545 220.144 263.641 218.608C262.329 221.648 261.193 224.496 260.233 227.152C259.305 229.776 258.489 232.352 257.785 234.88C257.113 237.408 256.521 240.032 256.009 242.752L256.585 244.912L255.529 245.68ZM271.549 245.632C271.517 245.632 271.421 245.616 271.261 245.584C271.069 245.584 270.973 245.552 270.973 245.488C271.613 244.24 272.349 242.688 273.181 240.832C274.013 238.944 274.877 236.928 275.773 234.784C275.485 234.72 275.181 234.656 274.861 234.592C274.573 234.528 274.269 234.464 273.949 234.4C273.725 234.144 273.549 233.776 273.421 233.296C273.293 232.784 273.229 232.448 273.229 232.288C273.229 232.064 273.277 231.952 273.373 231.952C273.565 231.952 273.917 232.032 274.429 232.192C274.973 232.352 275.709 232.48 276.637 232.576C277.501 230.464 278.333 228.32 279.133 226.144C279.965 223.936 280.717 221.824 281.389 219.808C282.061 217.76 282.605 215.92 283.021 214.288L288.301 211.504C288.557 211.504 288.909 211.584 289.357 211.744C289.805 211.872 290.157 212.096 290.413 212.416C290.317 213.248 290.253 214.112 290.221 215.008C290.189 215.872 290.173 216.736 290.173 217.6C290.173 220.224 290.317 222.864 290.605 225.52C290.893 228.144 291.261 230.688 291.709 233.152C292.157 235.584 292.621 237.856 293.101 239.968C293.613 242.08 294.077 243.92 294.493 245.488C294.493 245.584 294.365 245.632 294.109 245.632C293.629 245.632 293.245 245.568 292.957 245.44C292.669 245.312 292.429 245.136 292.237 244.912C291.725 243.792 291.149 242.336 290.509 240.544C289.901 238.752 289.293 236.816 288.685 234.736C286.509 235.088 284.301 235.264 282.061 235.264C281.453 235.264 280.877 235.264 280.333 235.264C279.789 235.232 279.245 235.2 278.701 235.168C277.965 236.704 277.181 238.272 276.349 239.872C275.517 241.472 274.621 243.152 273.661 244.912C273.405 245.136 273.101 245.312 272.749 245.44C272.397 245.568 271.997 245.632 271.549 245.632ZM279.853 232.72C281.133 232.688 282.461 232.592 283.837 232.432C285.213 232.272 286.557 232 287.869 231.616C287.293 229.44 286.781 227.248 286.333 225.04C285.885 222.832 285.565 220.8 285.373 218.944C284.445 221.504 283.533 223.904 282.637 226.144C281.741 228.352 280.813 230.544 279.853 232.72ZM302.411 245.344C301.515 245.344 300.651 245.296 299.819 245.2C299.019 245.136 297.995 244.912 296.747 244.528C296.587 244.272 296.459 243.968 296.363 243.616C296.267 243.232 296.219 242.96 296.219 242.8C296.219 242.576 296.235 242.464 296.267 242.464C296.491 242.464 296.971 242.592 297.707 242.848C298.475 243.072 299.547 243.184 300.923 243.184C303.643 243.184 305.835 242.64 307.499 241.552C309.163 240.464 309.995 239.072 309.995 237.376C309.995 236.224 309.595 235.152 308.795 234.16C308.027 233.136 307.051 232.16 305.867 231.232C304.715 230.304 303.547 229.36 302.363 228.4C301.211 227.44 300.235 226.432 299.435 225.376C298.667 224.32 298.283 223.168 298.283 221.92C298.283 221.28 298.475 220.512 298.859 219.616C299.243 218.72 299.995 217.792 301.115 216.832C302.267 215.872 303.947 214.976 306.155 214.144C308.363 213.312 311.307 212.64 314.987 212.128L315.803 213.376L314.219 217.504C312.651 216.672 310.843 216.256 308.795 216.256C307.803 216.256 306.859 216.384 305.963 216.64C305.067 216.896 304.331 217.328 303.755 217.936C303.179 218.544 302.891 219.376 302.891 220.432C302.891 221.36 303.195 222.24 303.803 223.072C304.411 223.872 305.179 224.672 306.107 225.472C307.067 226.24 308.075 227.024 309.131 227.824C310.187 228.624 311.179 229.472 312.107 230.368C313.067 231.232 313.851 232.176 314.459 233.2C315.067 234.224 315.371 235.344 315.371 236.56C315.371 237.328 315.195 238.224 314.843 239.248C314.491 240.24 313.851 241.2 312.923 242.128C311.995 243.056 310.683 243.824 308.987 244.432C307.291 245.04 305.099 245.344 302.411 245.344ZM326.434 245.584C326.21 245.584 326.098 245.536 326.098 245.44C326.514 242.976 326.786 240.592 326.914 238.288C327.074 235.984 327.154 233.776 327.154 231.664C327.154 230.704 327.122 229.424 327.058 227.824C327.026 226.224 326.962 224.56 326.866 222.832C326.802 221.072 326.706 219.472 326.578 218.032C326.162 218.064 325.746 218.08 325.33 218.08C324.946 218.08 324.546 218.08 324.13 218.08C322.434 218.08 320.722 217.936 318.994 217.648L318.226 216.4L320.05 212.272C321.202 212.88 322.514 213.312 323.986 213.568C325.458 213.792 327.058 213.904 328.786 213.904C330.834 213.904 332.802 213.76 334.69 213.472C336.578 213.184 338.098 212.896 339.25 212.608C339.378 212.608 339.442 212.752 339.442 213.04C339.442 213.264 339.378 213.584 339.25 214C339.122 214.384 338.946 214.672 338.722 214.864C337.474 215.376 336.242 215.84 335.026 216.256C333.81 216.672 332.594 217.024 331.378 217.312C331.282 219.232 331.154 221.44 330.994 223.936C330.866 226.4 330.674 228.944 330.418 231.568C330.194 234.16 329.922 236.624 329.602 238.96C329.282 241.296 328.914 243.28 328.498 244.912C328.274 245.136 327.938 245.296 327.49 245.392C327.042 245.52 326.69 245.584 326.434 245.584ZM352.883 245.584C351.251 245.584 349.875 245.152 348.755 244.288C347.667 243.424 346.803 242.24 346.163 240.736C345.523 239.232 345.059 237.536 344.771 235.648C344.483 233.728 344.323 231.728 344.291 229.648L343.331 229.456C343.011 229.36 342.723 229.024 342.467 228.448C342.211 227.84 342.067 227.408 342.035 227.152C342.035 226.992 342.067 226.912 342.131 226.912C342.195 226.88 342.243 226.864 342.275 226.864C342.627 226.896 342.979 226.944 343.331 227.008C343.683 227.04 344.019 227.072 344.339 227.104C344.371 226.208 344.419 225.088 344.483 223.744C344.579 222.368 344.675 220.992 344.771 219.616C344.899 218.208 345.043 217.024 345.203 216.064C345.011 216 344.819 215.952 344.627 215.92C344.435 215.888 344.243 215.84 344.051 215.776C343.731 215.552 343.491 215.216 343.331 214.768C343.171 214.32 343.091 214.016 343.091 213.856C343.091 213.696 343.123 213.616 343.187 213.616L346.595 213.904L350.099 211.504L351.347 212.272L350.771 213.952C352.851 213.92 354.915 213.728 356.963 213.376C359.011 213.024 360.931 212.4 362.723 211.504L363.539 212.752L361.955 216.88C359.715 217.168 357.523 217.312 355.379 217.312C354.483 217.312 353.587 217.296 352.691 217.264C351.827 217.2 350.947 217.104 350.051 216.976C349.731 218.416 349.411 220.032 349.091 221.824C348.803 223.584 348.579 225.392 348.419 227.248H349.523C351.699 227.248 353.555 227.072 355.091 226.72C356.659 226.368 357.955 225.984 358.979 225.568L359.411 226.384L357.971 229.696C357.075 229.856 356.083 229.984 354.995 230.08C353.939 230.176 352.947 230.224 352.019 230.224C350.739 230.224 349.475 230.176 348.227 230.08C348.195 230.4 348.179 230.72 348.179 231.04C348.179 231.36 348.179 231.68 348.179 232C348.179 233.952 348.371 235.76 348.755 237.424C349.139 239.056 349.715 240.368 350.483 241.36C351.283 242.32 352.291 242.8 353.507 242.8C355.523 242.8 357.091 242.096 358.211 240.688C359.331 239.248 360.291 237.072 361.091 234.16C361.155 233.904 361.267 233.776 361.427 233.776C361.587 233.776 361.795 233.824 362.051 233.92C362.339 234.016 362.627 234.192 362.915 234.448C362.499 236.528 361.875 238.416 361.043 240.112C360.243 241.808 359.171 243.136 357.827 244.096C356.515 245.088 354.867 245.584 352.883 245.584ZM371.651 245.632C371.363 245.632 371.219 245.584 371.219 245.488C371.379 244.112 371.523 242.304 371.651 240.064C371.811 237.792 371.891 235.36 371.891 232.768C371.347 232.768 370.787 232.768 370.211 232.768C369.667 232.768 369.155 232.752 368.675 232.72C368.355 232.432 368.131 232.096 368.003 231.712C367.907 231.296 367.859 230.992 367.859 230.8C367.859 230.544 367.907 230.416 368.003 230.416C368.515 230.512 369.059 230.576 369.635 230.608C370.211 230.608 370.947 230.608 371.843 230.608C371.811 228.432 371.667 226.288 371.411 224.176C371.155 222.032 370.755 220.096 370.211 218.368C369.667 216.608 368.947 215.2 368.051 214.144L370.307 210.928C372.067 212.08 373.811 213.056 375.539 213.856C377.299 214.624 378.947 215.328 380.483 215.968C382.051 216.608 383.427 217.28 384.611 217.984C385.827 218.656 386.771 219.44 387.443 220.336C388.147 221.2 388.499 222.288 388.499 223.6C388.499 224.848 388.083 226.16 387.251 227.536C386.419 228.88 384.915 230.016 382.739 230.944C383.475 232.576 384.291 234.272 385.187 236.032C386.115 237.792 387.043 239.456 387.971 241.024C388.931 242.592 389.795 243.888 390.563 244.912C390.563 245.072 390.387 245.2 390.035 245.296C389.715 245.424 389.363 245.488 388.979 245.488C388.883 245.488 388.787 245.488 388.691 245.488C388.595 245.488 388.499 245.472 388.403 245.44C387.539 244.576 386.579 243.44 385.523 242.032C384.499 240.592 383.443 239.008 382.355 237.28C381.267 235.552 380.211 233.808 379.187 232.048C378.547 232.176 377.859 232.304 377.123 232.432C376.419 232.528 375.667 232.608 374.867 232.672C374.739 234.752 374.547 236.832 374.291 238.912C374.035 240.96 373.779 242.96 373.523 244.912C373.299 245.136 372.979 245.312 372.563 245.44C372.179 245.568 371.875 245.632 371.651 245.632ZM374.963 230.368C377.971 229.952 380.163 229.152 381.539 227.968C382.947 226.752 383.651 225.44 383.651 224.032C383.651 222.72 383.235 221.632 382.403 220.768C381.571 219.872 380.451 219.088 379.043 218.416C377.635 217.712 376.051 217.008 374.291 216.304C374.611 218.064 374.819 219.744 374.915 221.344C375.043 222.944 375.107 224.592 375.107 226.288C375.107 227.6 375.059 228.96 374.963 230.368ZM396.77 245.344C395.874 245.344 395.01 245.296 394.178 245.2C393.378 245.136 392.354 244.912 391.106 244.528C390.946 244.272 390.818 243.968 390.722 243.616C390.626 243.232 390.578 242.96 390.578 242.8C390.578 242.576 390.594 242.464 390.626 242.464C390.85 242.464 391.33 242.592 392.066 242.848C392.834 243.072 393.906 243.184 395.282 243.184C398.002 243.184 400.194 242.64 401.858 241.552C403.522 240.464 404.354 239.072 404.354 237.376C404.354 236.224 403.954 235.152 403.154 234.16C402.386 233.136 401.41 232.16 400.226 231.232C399.074 230.304 397.906 229.36 396.722 228.4C395.57 227.44 394.594 226.432 393.794 225.376C393.026 224.32 392.642 223.168 392.642 221.92C392.642 221.28 392.834 220.512 393.218 219.616C393.602 218.72 394.354 217.792 395.474 216.832C396.626 215.872 398.306 214.976 400.514 214.144C402.722 213.312 405.666 212.64 409.346 212.128L410.162 213.376L408.578 217.504C407.01 216.672 405.202 216.256 403.154 216.256C402.162 216.256 401.218 216.384 400.322 216.64C399.426 216.896 398.69 217.328 398.114 217.936C397.538 218.544 397.25 219.376 397.25 220.432C397.25 221.36 397.554 222.24 398.162 223.072C398.77 223.872 399.538 224.672 400.466 225.472C401.426 226.24 402.434 227.024 403.49 227.824C404.546 228.624 405.538 229.472 406.466 230.368C407.426 231.232 408.21 232.176 408.818 233.2C409.426 234.224 409.73 235.344 409.73 236.56C409.73 237.328 409.554 238.224 409.202 239.248C408.85 240.24 408.21 241.2 407.282 242.128C406.354 243.056 405.042 243.824 403.346 244.432C401.65 245.04 399.458 245.344 396.77 245.344Z" fill="black"/>
</svg>
